PathFileType	4	(X/Y/Z)	D:\MotionData\Pi-Spi Study\20230118_AMCsubject1\Trimmed_right_abd_18001_rotated.trc
DataRate	CameraRate	NumFrames	NumMarkers	Units	OrigDataRate	OrigDataStartFrame	OrigNumFrames
200.00	200.00	       11	35	mm	200.00	126	       200
Frame#	Time	C7			Sternum			r_AMC1			r_AMC2			r_AMC3			l_AMC1			l_AMC2			l_AMC3			PX			T8			r_humerous			r_elbow_medial			r_elbow_lateral			r_forearm			r_wrist_radius			r_wrist_ulna			r_MCP_1			r_MCP_3			l_humerous			l_elbow_medial			l_elbow_lateral			l_forearm			l_wrist_radius			l_wrist_ulna			l_MCP_1			l_MCP_3			r_ASIS			r_PSIS			l_ASIS			l_PSIS			r_IC			l_IC			TS			AI			AA			
		X1	Y1	Z1	X2	Y2	Z2	X3	Y3	Z3	X4	Y4	Z4	X5	Y5	Z5	X6	Y6	Z6	X7	Y7	Z7	X8	Y8	Z8	X9	Y9	Z9	X10	Y10	Z10	X11	Y11	Z11	X12	Y12	Z12	X13	Y13	Z13	X14	Y14	Z14	X15	Y15	Z15	X16	Y16	Z16	X17	Y17	Z17	X18	Y18	Z18	X19	Y19	Z19	X20	Y20	Z20	X21	Y21	Z21	X22	Y22	Z22	X23	Y23	Z23	X24	Y24	Z24	X25	Y25	Z25	X26	Y26	Z26	X27	Y27	Z27	X28	Y28	Z28	X29	Y29	Z29	X30	Y30	Z30	X31	Y31	Z31	X32	Y32	Z32	X33	Y33	Z33	X34	Y34	Z34	X35	Y35	Z35	

126	0.625	192.7397	1374.3984	-245.926	329.2096	1322.5041	-223.6711	156.7786	1342.4194	-115.4078	185.74	1378.2515	-97.501	188.4243	1396.7523	-137.6773	221.0558	1323.1769	-398.5126	261.4257	1316.6895	-429.418	282.7926	1354.3319	-400.9515	391.0136	1131.2373	-207.3856	158.7174	1191.0194	-244.654	265.2909	1475.0798	-79.2321	352.6756	1556.4744	13.2265	295.673	1579.2935	13.2771	334.8533	1741.4923	27.2542	375.8409	1807.9679	2.9276	364.291	1801.1952	53.6919	395.3869	1889.5088	5.893	388.2702	1883.6061	53.0847	345.0357	1127.2894	-425.964	297.061	993.7155	-381.4493	288.5398	987.665	-433.6245	323.6223	842.0843	-474.8941	337.3494	765.0673	-459.0353	359.4579	775.6085	-494.7807	352.4861	690.0359	-470.1459	367.1975	699.2692	-512.0529	352.0731	909.429	-76.4822	170.0001	929.8131	-169.6119	368.629	892.7889	-335.1468	176.821	922.9327	-272.3646	270.4139	972.3829	-53.7774	282.9425	941.038	-378.7016	101.4337	1294.9626	-158.5652	120.1545	1220.8626	-90.5963	136.9065	1389.144	-54.3251
127	0.63	192.7458	1374.3644	-245.9299	329.2971	1322.5175	-223.6785	156.8041	1342.4335	-115.3637	185.7462	1378.249	-97.5136	188.4423	1396.7472	-137.6811	221.066	1323.1517	-398.4979	261.452	1316.692	-429.4151	282.7997	1354.3033	-400.9709	391.0685	1131.2499	-207.3948	158.7462	1191.0045	-244.6432	265.2807	1475.0818	-79.2335	352.6616	1556.4933	13.2112	295.6732	1579.3133	13.2574	334.811	1741.5188	27.2496	375.7832	1807.9888	2.9197	364.2754	1801.2261	53.6746	395.3182	1889.5314	5.8774	388.2304	1883.6103	53.0789	345.0904	1127.171	-425.964	297.0745	993.7015	-381.4543	288.5601	987.6877	-433.6377	323.6522	842.0927	-474.904	337.364	765.1128	-459.0661	359.4835	775.6095	-494.8118	352.5399	690.0665	-470.1657	367.2241	699.271	-512.0829	352.1281	909.4006	-76.4951	170.0064	929.8138	-169.6131	368.6272	892.7744	-335.1651	176.8424	922.9532	-272.3612	270.4486	972.395	-53.7949	282.8969	941.0873	-378.7241	101.4548	1294.9469	-158.5889	120.2089	1220.9557	-90.5375	136.9237	1389.1566	-54.357
128	0.635	192.7603	1374.3649	-245.9291	329.3197	1322.53	-223.7024	156.7764	1342.3827	-115.45	185.7512	1378.2385	-97.5071	188.441	1396.7329	-137.6815	221.046	1323.1594	-398.4843	261.4537	1316.6906	-429.4189	282.8156	1354.3189	-400.959	391.1031	1131.2748	-207.3819	158.7803	1190.9984	-244.653	265.2767	1475.0715	-79.2521	352.6755	1556.4949	13.176	295.6615	1579.3278	13.2484	334.8049	1741.51	27.2348	375.7457	1808.0011	2.9144	364.216	1801.2389	53.683	395.2753	1889.5732	5.8681	388.1789	1883.6516	53.0677	345.097	1127.2313	-425.9806	297.1058	993.6837	-381.4775	288.5865	987.6892	-433.6439	323.685	842.0817	-474.9316	337.3878	765.1072	-459.101	359.5011	775.598	-494.8296	352.553	690.0855	-470.2369	367.2166	699.2817	-512.1091	352.1411	909.3771	-76.4959	170.0423	929.8181	-169.6242	368.6874	892.7679	-335.1495	176.8854	922.9336	-272.357	270.5027	972.3799	-53.7963	283.084	940.975	-378.6965	101.4505	1294.9705	-158.5868	120.1856	1220.9098	-90.5913	136.9245	1389.1749	-54.3619
129	0.64	192.7698	1374.3668	-245.9216	329.3302	1322.5429	-223.679	156.78	1342.381	-115.4357	185.7711	1378.2478	-97.5252	188.4606	1396.7229	-137.6823	221.0675	1323.1827	-398.4901	261.4637	1316.6846	-429.4142	282.8124	1354.293	-400.9536	391.1157	1131.2719	-207.3829	158.7909	1191.0015	-244.6262	265.2617	1475.1019	-79.2454	352.6521	1556.4936	13.199	295.6667	1579.3637	13.2331	334.7653	1741.5555	27.2124	375.7189	1808.0374	2.9045	364.19	1801.26	53.6579	395.2158	1889.6118	5.8414	388.1088	1883.686	53.0754	345.1091	1127.2235	-425.9876	297.1355	993.6793	-381.4808	288.6061	987.682	-433.6552	323.6917	842.1033	-474.9639	337.4251	765.0869	-459.125	359.5281	775.6291	-494.8509	352.6075	690.0949	-470.2544	367.2714	699.274	-512.1301	352.1674	909.3751	-76.5048	170.0856	929.8187	-169.6346	368.6888	892.7729	-335.135	176.9072	922.9329	-272.3625	270.537	972.3901	-53.8062	283.0813	941.0123	-378.6823	101.3348	1294.7821	-158.9143	120.1988	1220.9624	-90.5236	136.9332	1389.1985	-54.3955
130	0.645	192.7877	1374.3554	-245.9192	329.3794	1322.5581	-223.6836	156.8025	1342.3718	-115.4649	185.7566	1378.2278	-97.5262	188.4472	1396.727	-137.7114	221.1046	1323.137	-398.5247	261.4884	1316.6852	-429.4139	282.8073	1354.2985	-400.9585	391.1067	1131.3054	-207.3787	158.8064	1190.9883	-244.635	265.2718	1475.0875	-79.2442	352.6309	1556.5308	13.1828	295.6759	1579.3568	13.2136	334.7211	1741.5584	27.2325	375.6679	1808.0553	2.9055	364.1678	1801.2725	53.6522	395.1861	1889.6202	5.8323	388.0732	1883.7123	53.0518	345.097	1127.2293	-426.024	297.1588	993.6677	-381.4742	288.6239	987.7003	-433.6538	323.7093	842.0849	-474.9871	337.9715	765.1177	-459.3691	359.5397	775.6283	-494.8908	352.6063	690.1054	-470.3029	367.2788	699.2792	-512.1538	352.2141	909.368	-76.506	170.0885	929.8303	-169.6264	368.7476	892.7662	-335.1078	176.9506	922.9272	-272.3737	270.5662	972.3895	-53.7895	283.2007	940.949	-378.7268	101.4778	1294.9336	-158.5777	120.2013	1221.014	-90.5167	136.9556	1389.2115	-54.4215
131	0.65	192.8166	1374.3508	-245.9166	329.3939	1322.5481	-223.6849	156.832	1342.3669	-115.4143	185.7682	1378.2185	-97.5324	188.4739	1396.7229	-137.703	221.0929	1323.158	-398.4764	261.4706	1316.6913	-429.4051	282.8203	1354.3087	-400.9647	391.1281	1131.3118	-207.3877	158.8398	1190.9821	-244.6072	265.2708	1475.0885	-79.2558	352.6517	1556.5374	13.1525	295.6442	1579.3654	13.2385	334.6965	1741.5682	27.2188	375.6227	1808.0731	2.9077	364.1246	1801.3009	53.6447	395.1215	1889.6473	5.8239	388.0208	1883.7206	53.0581	345.0977	1127.2167	-426.0475	297.1594	993.6772	-381.4946	288.6377	987.6836	-433.6585	323.7214	842.0973	-474.996	337.4612	765.1003	-459.1709	359.5605	775.645	-494.9029	352.6084	690.115	-470.3231	367.2856	699.2781	-512.1659	352.2029	909.329	-76.5095	170.1307	929.843	-169.636	368.765	892.7417	-335.1259	176.9611	922.9354	-272.3686	270.5853	972.4197	-53.7922	282.8605	941.3074	-378.6997	101.5006	1294.9408	-158.58	120.2405	1220.9979	-90.5377	136.9183	1389.2245	-54.4249
132	0.655	192.8278	1374.3429	-245.9081	329.3938	1322.5669	-223.6927	156.8324	1342.3492	-115.4656	185.7693	1378.2268	-97.5435	188.493	1396.7062	-137.7195	221.0802	1323.1615	-398.5087	261.496	1316.6664	-429.4121	282.8357	1354.2905	-400.9786	391.1671	1131.3169	-207.3804	158.8725	1190.9797	-244.6031	265.2558	1475.0989	-79.2455	352.6489	1556.5278	13.1375	295.6639	1579.3054	13.266	334.6693	1741.5798	27.1987	375.5866	1808.0986	2.8892	364.0779	1801.3022	53.6248	395.055	1889.6674	5.7938	387.9827	1883.7377	53.0204	345.0904	1127.2074	-426.0716	297.1814	993.6456	-381.4705	288.601	987.6882	-433.6744	323.7268	842.1037	-475.018	337.4568	765.0743	-459.2042	359.5773	775.6597	-494.9217	352.6262	690.1097	-470.3519	367.2997	699.291	-512.1872	352.1976	909.3102	-76.49	170.154	929.8469	-169.6329	368.7712	892.7727	-335.1462	176.998	922.9473	-272.3879	270.6335	972.3862	-53.8126	283.0395	941.1868	-378.7336	101.5149	1294.9185	-158.5692	120.2051	1220.9828	-90.4681	136.9277	1389.2452	-54.4252
133	0.66	192.8367	1374.3268	-245.9208	329.4494	1322.5618	-223.6672	156.8391	1342.3457	-115.4661	185.7945	1378.2158	-97.5338	188.4972	1396.6802	-137.7381	221.1052	1323.1594	-398.4793	261.5027	1316.668	-429.4108	282.8329	1354.3151	-400.9519	391.1705	1131.3224	-207.3795	158.8814	1190.9686	-244.6204	265.2642	1475.1138	-79.254	352.6252	1556.5526	13.1435	295.6537	1579.3959	13.2118	334.6388	1741.5938	27.1908	375.5542	1808.1068	2.8691	364.0487	1801.3497	53.5893	395.0296	1889.684	5.7847	387.9314	1883.7623	53.0122	345.0978	1127.2297	-426.0978	297.2064	993.644	-381.474	288.624	987.6906	-433.6519	323.7239	842.095	-475.0137	337.4582	765.124	-459.1936	359.5912	775.6503	-494.937	352.6214	690.1113	-470.377	367.275	699.288	-512.2131	352.2775	909.3494	-76.5267	170.1783	929.8399	-169.6234	368.8274	892.7606	-335.1191	177.0272	922.9412	-272.3665	270.6426	972.4075	-53.7879	283.0127	941.1804	-378.7116	101.3676	1294.7131	-158.924	120.2101	1220.9967	-90.425	136.9532	1389.2601	-54.4348
134	0.665	192.8403	1374.3422	-245.925	329.4717	1322.5787	-223.6725	156.8609	1342.3351	-115.4698	185.7957	1378.2288	-97.5585	188.5239	1396.6906	-137.7293	221.0625	1323.1876	-398.4685	261.4977	1316.6586	-429.3981	282.8561	1354.3016	-400.961	391.2107	1131.3229	-207.3759	158.8997	1190.9669	-244.5934	265.221	1475.1205	-79.238	352.6167	1556.5516	13.137	295.6208	1579.3914	13.2406	334.6117	1741.6066	27.1898	375.5093	1808.1273	2.8651	364.0016	1801.3269	53.5999	394.9772	1889.7092	5.7781	387.8781	1883.7841	53.0162	345.0613	1127.2686	-426.0987	297.2121	993.619	-381.4714	288.6436	987.6557	-433.6529	323.7346	842.0897	-475.0131	338.0378	765.1446	-459.4192	359.5877	775.6366	-494.9438	352.654	690.0909	-470.3696	367.2699	699.2809	-512.2134	352.2698	909.2999	-76.5114	169.81	929.9976	-169.656	368.8675	892.7667	-335.1162	177.0683	922.9308	-272.3748	270.6659	972.4307	-53.8141	283.2335	941.0486	-378.716	101.5462	1294.9055	-158.552	120.2316	1221.0151	-90.4677	136.9581	1389.2711	-54.4528
135	0.67	192.8598	1374.333	-245.9035	329.5026	1322.5846	-223.6783	156.8592	1342.3394	-115.4758	185.8142	1378.2246	-97.5472	188.5431	1396.6716	-137.7306	221.0859	1323.1674	-398.4576	261.5271	1316.6576	-429.4079	282.8664	1354.2955	-400.9703	391.2219	1131.3529	-207.326	158.9334	1190.9586	-244.6006	265.2427	1475.1044	-79.2542	352.5811	1556.5995	13.1577	295.6237	1579.4008	13.2452	334.5865	1741.6008	27.186	375.4772	1808.1488	2.8512	363.9585	1801.369	53.5729	394.9152	1889.7017	5.7586	387.839	1883.8103	52.9719	345.078	1127.2803	-426.1155	297.2359	993.6152	-381.4513	288.634	987.6328	-433.6638	323.716	842.0859	-475.0324	337.4109	765.1002	-459.2632	359.5605	775.6118	-494.9463	352.6573	690.0685	-470.3677	367.2668	699.2706	-512.2247	352.3064	909.3271	-76.5247	169.8524	930.0113	-169.649	368.8286	892.7427	-335.1238	177.0892	922.9265	-272.3863	270.7126	972.4208	-53.8042	283.1298	941.1502	-378.736	101.5501	1294.8887	-158.5484	120.2011	1221.0049	-90.3738	136.9509	1389.2789	-54.4481
136	0.675	192.8953	1374.3169	-245.9093	329.4852	1322.5821	-223.6785	156.891	1342.3372	-115.4639	185.8265	1378.2225	-97.5466	188.5616	1396.6796	-137.7311	221.0871	1323.1783	-398.4837	261.5453	1316.6464	-429.4144	282.8885	1354.2963	-400.9716	391.2756	1131.3657	-207.3769	158.9434	1190.9522	-244.5918	265.226	1475.1106	-79.2326	352.5771	1556.6158	13.1597	295.5991	1579.3954	13.2265	334.5371	1741.6222	27.174	375.4355	1808.1523	2.8264	363.9096	1801.377	53.5827	394.8943	1889.7306	5.7224	387.8033	1883.8252	52.9607	345.0986	1127.2745	-426.1595	297.2217	993.6205	-381.4715	288.6544	987.6695	-433.6472	323.7324	842.0804	-475.0226	337.4558	765.0615	-459.2241	359.5409	775.6099	-494.9487	352.6433	690.071	-470.3637	367.2295	699.2781	-512.2393	352.3566	909.3285	-76.5322	169.8775	930.002	-169.6472	368.8768	892.7412	-335.127	177.1121	922.9321	-272.3872	270.7632	972.3922	-53.8245	283.0276	941.2535	-378.7443	101.5756	1294.8782	-158.5494	120.2332	1221.0298	-90.3716	136.9622	1389.29	-54.4647
